<svg id="Layer_1" data-name="Layer 1" xmlns="http://www.w3.org/2000/svg" viewBox="0 0 2595 202.81"><title>akinola-davies-jr-logo-rbg</title><path d="M141.25,166.17H77.07l-9.25,30.46H2L69.45,6.24h82.14L219,196.63H150.5Zm-15-48.41L109.16,62,92,117.76Z"/><path d="M308.79,133l-22.85,26.92v36.72h-63.1V6.24h63.1V73.42L338.71,6.24H416L351.76,82.13,417,196.63H343.6Z"/><path d="M422.47,6.24h65.28V196.63H422.47Z"/><path d="M555.74,96.27V196.63H494.27V6.24h72.35l56.3,100.36V6.24h61.46V196.63H612Z"/><path d="M687.64,100.89c0-64.46,52.22-98.45,103.63-98.45,51.67,0,103.08,33.72,103.08,98.45,0,64.19-50.86,99.28-103.62,99.28S687.64,165.62,687.64,100.89Zm140.35,0c0-27.74-15.51-44.6-37-44.6-21.76,0-37,16.59-37,44.6,0,28.56,15.77,45.42,37,45.42C812.48,146.31,828,129.72,828,100.89Z"/><path d="M897.61,6.24h65.27V143.32h78.88v53.31H897.61Z"/><path d="M1181.55,166.17h-64.19l-9.24,30.46H1042.3L1109.75,6.24h82.14l67.45,190.39H1190.8Zm-15-48.41L1149.46,62l-17.14,55.76Z"/><path d="M1297.14,6.24h85.12c60.38,0,100.91,32.64,100.91,94.38,0,58.75-41.07,96-100.91,96h-85.12ZM1376.28,145c23.93,0,40.53-15.77,40.53-44.06,0-27.74-16.87-43-40.53-43h-14.41v87Z"/><path d="M1601.2,166.17H1537l-9.25,30.46H1462L1529.4,6.24h82.14L1679,196.63h-68.54Zm-15-48.41L1569.11,62,1552,117.76Z"/><path d="M1754.87,196.63h-69.63l-65-190.39h68.54l32.64,114,32.63-114h65.82Z"/><path d="M1823.68,6.24H1889V196.63h-65.27Z"/><path d="M2044.52,196.63h-149V6.24h147.41v49H1958V77.5h77.24v46.78H1958v23.39h86.49Z"/><path d="M2050,135.16h63.91c1.63,14.42,12,20.4,26.65,20.4,12.24,0,19.86-4.35,19.86-12.51,0-7.07-5.44-10.88-21.21-13.87l-18-3.54c-47.59-9.24-68.53-29.64-68.53-60.92,0-37,37-62.28,81.86-62.28,45.69,0,81.32,21.76,85.67,62h-63.37c-1.9-12.24-10.6-17.41-23.12-17.41-10.6,0-17.67,4.62-17.67,12,0,6.53,5.44,9,19.85,11.69l19,3.54c43,7.89,69.08,25.84,69.08,62.83,0,38.89-38.08,63.1-84.31,63.1C2091.57,200.17,2054.58,180,2050,135.16Z"/><path d="M2246.05,127h63.64c.54,10.88,6,19.31,17.41,19.31,10.6,0,16-7.88,16-19.85V6.24h65.28V127.82c0,47.6-32.64,72.35-81.6,72.35C2280.86,200.17,2250.67,172.15,2246.05,127Z"/><path d="M2477.23,139.52v57.11h-63.65V6.24h96c55.48,0,76.15,32.1,76.15,65.28,0,25.84-13.32,45.69-33.45,56v.54c1.63,2.72,2.72,4.63,6,10.34l33.73,58.2h-73.71L2490,142.23c-1.09-2.17-2.18-2.71-4.9-2.71Zm0-49h23.11c13.33,0,20.4-6.8,20.4-17.41,0-11.15-7.34-18-20.4-18h-23.11Z"/></svg>